<mxfile host="Electron" modified="2024-05-02T00:37:43.408Z" agent="Mozilla/5.0 (Windows NT 10.0; Win64; x64) AppleWebKit/537.36 (KHTML, like Gecko) draw.io/24.2.5 Chrome/120.0.6099.109 Electron/28.1.0 Safari/537.36" etag="x9n2eIKvR-_GHPg1eeIj" version="24.2.5" type="device">
  <diagram name="Page-1" id="txfcCS9ttzZGqAP_y7Wi">
    <mxGraphModel dx="2085" dy="731" grid="1" gridSize="10" guides="1" tooltips="1" connect="1" arrows="1" fold="1" page="1" pageScale="1" pageWidth="850" pageHeight="1100" math="0" shadow="0">
      <root>
        <mxCell id="0" />
        <mxCell id="1" parent="0" />
        <mxCell id="skWBgFnhxe72LEznJVyA-2" value="&lt;span style=&quot;font-size:14.0pt;font-family:&amp;quot;Arial&amp;quot;,sans-serif;&lt;br/&gt;mso-fareast-font-family:Arial;position:relative;top:.5pt;mso-text-raise:-.5pt;&lt;br/&gt;mso-ansi-language:EN-US;mso-fareast-language:EN-US;mso-bidi-language:AR-EG&quot;&gt;Musician&amp;nbsp;&lt;/span&gt;" style="rounded=0;whiteSpace=wrap;html=1;" parent="1" vertex="1">
          <mxGeometry x="80" y="400" width="120" height="60" as="geometry" />
        </mxCell>
        <mxCell id="skWBgFnhxe72LEznJVyA-4" value="&lt;span style=&quot;font-size:14.0pt;font-family:&amp;quot;Arial&amp;quot;,sans-serif;&lt;br/&gt;mso-fareast-font-family:Arial;position:relative;top:.5pt;mso-text-raise:-.5pt;&lt;br/&gt;mso-ansi-language:EN-US;mso-fareast-language:EN-US;mso-bidi-language:AR-EG&quot;&gt;instrument&amp;nbsp;&lt;/span&gt;" style="rounded=0;whiteSpace=wrap;html=1;" parent="1" vertex="1">
          <mxGeometry x="680" y="400" width="120" height="60" as="geometry" />
        </mxCell>
        <mxCell id="skWBgFnhxe72LEznJVyA-6" value="&lt;span style=&quot;font-size: 19px;&quot;&gt;Songs&lt;/span&gt;" style="rounded=0;whiteSpace=wrap;html=1;" parent="1" vertex="1">
          <mxGeometry x="680" y="745" width="120" height="60" as="geometry" />
        </mxCell>
        <mxCell id="skWBgFnhxe72LEznJVyA-7" value="MusName" style="ellipse;whiteSpace=wrap;html=1;" parent="1" vertex="1">
          <mxGeometry x="-80" y="320" width="80" height="50" as="geometry" />
        </mxCell>
        <mxCell id="skWBgFnhxe72LEznJVyA-9" value="Mu_ID" style="ellipse;whiteSpace=wrap;html=1;" parent="1" vertex="1">
          <mxGeometry x="-80" y="400" width="80" height="50" as="geometry" />
        </mxCell>
        <mxCell id="skWBgFnhxe72LEznJVyA-10" value="PhoneNum" style="ellipse;whiteSpace=wrap;html=1;" parent="1" vertex="1">
          <mxGeometry x="30" y="320" width="80" height="50" as="geometry" />
        </mxCell>
        <mxCell id="skWBgFnhxe72LEznJVyA-11" value="Mu_Address" style="ellipse;whiteSpace=wrap;html=1;" parent="1" vertex="1">
          <mxGeometry x="140" y="320" width="80" height="50" as="geometry" />
        </mxCell>
        <mxCell id="skWBgFnhxe72LEznJVyA-13" value="" style="endArrow=none;html=1;rounded=0;entryX=1;entryY=1;entryDx=0;entryDy=0;exitX=0.75;exitY=0;exitDx=0;exitDy=0;" parent="1" source="skWBgFnhxe72LEznJVyA-2" target="skWBgFnhxe72LEznJVyA-11" edge="1">
          <mxGeometry width="50" height="50" relative="1" as="geometry">
            <mxPoint x="320" y="460" as="sourcePoint" />
            <mxPoint x="370" y="410" as="targetPoint" />
          </mxGeometry>
        </mxCell>
        <mxCell id="skWBgFnhxe72LEznJVyA-14" value="" style="endArrow=none;html=1;rounded=0;entryX=0.655;entryY=1.04;entryDx=0;entryDy=0;entryPerimeter=0;exitX=0.167;exitY=0.04;exitDx=0;exitDy=0;exitPerimeter=0;" parent="1" source="skWBgFnhxe72LEznJVyA-2" target="skWBgFnhxe72LEznJVyA-10" edge="1">
          <mxGeometry width="50" height="50" relative="1" as="geometry">
            <mxPoint x="330" y="470" as="sourcePoint" />
            <mxPoint x="380" y="420" as="targetPoint" />
          </mxGeometry>
        </mxCell>
        <mxCell id="skWBgFnhxe72LEznJVyA-15" value="" style="endArrow=none;html=1;rounded=0;entryX=1;entryY=0.5;entryDx=0;entryDy=0;exitX=0;exitY=0.5;exitDx=0;exitDy=0;" parent="1" source="skWBgFnhxe72LEznJVyA-2" target="skWBgFnhxe72LEznJVyA-9" edge="1">
          <mxGeometry width="50" height="50" relative="1" as="geometry">
            <mxPoint x="-10" y="510" as="sourcePoint" />
            <mxPoint x="40" y="460" as="targetPoint" />
          </mxGeometry>
        </mxCell>
        <mxCell id="skWBgFnhxe72LEznJVyA-16" value="" style="endArrow=none;html=1;rounded=0;entryX=1;entryY=1;entryDx=0;entryDy=0;exitX=0;exitY=0.25;exitDx=0;exitDy=0;" parent="1" source="skWBgFnhxe72LEznJVyA-2" target="skWBgFnhxe72LEznJVyA-7" edge="1">
          <mxGeometry width="50" height="50" relative="1" as="geometry">
            <mxPoint x="310" y="450" as="sourcePoint" />
            <mxPoint x="360" y="400" as="targetPoint" />
          </mxGeometry>
        </mxCell>
        <mxCell id="skWBgFnhxe72LEznJVyA-17" value="" style="endArrow=none;html=1;rounded=0;" parent="1" edge="1">
          <mxGeometry width="50" height="50" relative="1" as="geometry">
            <mxPoint x="-10" y="440" as="sourcePoint" />
            <mxPoint x="-70" y="440" as="targetPoint" />
          </mxGeometry>
        </mxCell>
        <mxCell id="skWBgFnhxe72LEznJVyA-21" value="&lt;span style=&quot;font-size: 13px; font-family: Arial, sans-serif; position: relative; top: 0.5pt;&quot;&gt;musical&lt;br/&gt;key&lt;/span&gt;" style="ellipse;whiteSpace=wrap;html=1;" parent="1" vertex="1">
          <mxGeometry x="700" y="320" width="80" height="50" as="geometry" />
        </mxCell>
        <mxCell id="skWBgFnhxe72LEznJVyA-22" value="&lt;div&gt;Name&lt;/div&gt;" style="ellipse;whiteSpace=wrap;html=1;" parent="1" vertex="1">
          <mxGeometry x="590" y="320" width="80" height="50" as="geometry" />
        </mxCell>
        <mxCell id="skWBgFnhxe72LEznJVyA-23" value="" style="endArrow=none;html=1;rounded=0;exitX=1;exitY=1;exitDx=0;exitDy=0;entryX=0;entryY=1;entryDx=0;entryDy=0;" parent="1" source="skWBgFnhxe72LEznJVyA-22" target="skWBgFnhxe72LEznJVyA-22" edge="1">
          <mxGeometry width="50" height="50" relative="1" as="geometry">
            <mxPoint x="660" y="360" as="sourcePoint" />
            <mxPoint x="600" y="360" as="targetPoint" />
          </mxGeometry>
        </mxCell>
        <mxCell id="skWBgFnhxe72LEznJVyA-25" value="" style="endArrow=none;html=1;rounded=0;entryX=0.5;entryY=1;entryDx=0;entryDy=0;exitX=0;exitY=0;exitDx=0;exitDy=0;" parent="1" source="skWBgFnhxe72LEznJVyA-4" target="skWBgFnhxe72LEznJVyA-22" edge="1">
          <mxGeometry width="50" height="50" relative="1" as="geometry">
            <mxPoint x="310" y="450" as="sourcePoint" />
            <mxPoint x="360" y="400" as="targetPoint" />
          </mxGeometry>
        </mxCell>
        <mxCell id="skWBgFnhxe72LEznJVyA-26" value="" style="endArrow=none;html=1;rounded=0;entryX=0.5;entryY=1;entryDx=0;entryDy=0;exitX=0.5;exitY=0;exitDx=0;exitDy=0;" parent="1" source="skWBgFnhxe72LEznJVyA-4" target="skWBgFnhxe72LEznJVyA-21" edge="1">
          <mxGeometry width="50" height="50" relative="1" as="geometry">
            <mxPoint x="740" y="390" as="sourcePoint" />
            <mxPoint x="360" y="400" as="targetPoint" />
          </mxGeometry>
        </mxCell>
        <mxCell id="skWBgFnhxe72LEznJVyA-27" value="&lt;span style=&quot;font-size: 19px;&quot;&gt;Album&lt;/span&gt;" style="rounded=0;whiteSpace=wrap;html=1;" parent="1" vertex="1">
          <mxGeometry x="80" y="750" width="120" height="60" as="geometry" />
        </mxCell>
        <mxCell id="skWBgFnhxe72LEznJVyA-28" value="&lt;font size=&quot;1&quot; face=&quot;Arial, sans-serif&quot;&gt;&lt;span style=&quot;white-space-collapse: preserve; font-size: 13px;&quot;&gt;Copy_Date&lt;/span&gt;&lt;/font&gt;" style="ellipse;whiteSpace=wrap;html=1;" parent="1" vertex="1">
          <mxGeometry x="-80" y="890" width="80" height="50" as="geometry" />
        </mxCell>
        <mxCell id="skWBgFnhxe72LEznJVyA-30" value="Title" style="ellipse;whiteSpace=wrap;html=1;" parent="1" vertex="1">
          <mxGeometry x="-80" y="750" width="80" height="50" as="geometry" />
        </mxCell>
        <mxCell id="skWBgFnhxe72LEznJVyA-31" value="Album_ID" style="ellipse;whiteSpace=wrap;html=1;" parent="1" vertex="1">
          <mxGeometry x="20" y="890" width="80" height="50" as="geometry" />
        </mxCell>
        <mxCell id="skWBgFnhxe72LEznJVyA-35" value="" style="endArrow=none;html=1;rounded=0;exitX=0.313;exitY=1.047;exitDx=0;exitDy=0;exitPerimeter=0;" parent="1" source="skWBgFnhxe72LEznJVyA-27" target="skWBgFnhxe72LEznJVyA-31" edge="1">
          <mxGeometry width="50" height="50" relative="1" as="geometry">
            <mxPoint x="330" y="820" as="sourcePoint" />
            <mxPoint x="80" y="930" as="targetPoint" />
          </mxGeometry>
        </mxCell>
        <mxCell id="skWBgFnhxe72LEznJVyA-36" value="" style="endArrow=none;html=1;rounded=0;entryX=1;entryY=0.5;entryDx=0;entryDy=0;exitX=0;exitY=0.5;exitDx=0;exitDy=0;" parent="1" source="skWBgFnhxe72LEznJVyA-27" target="skWBgFnhxe72LEznJVyA-30" edge="1">
          <mxGeometry width="50" height="50" relative="1" as="geometry">
            <mxPoint x="-10" y="860" as="sourcePoint" />
            <mxPoint x="40" y="810" as="targetPoint" />
          </mxGeometry>
        </mxCell>
        <mxCell id="skWBgFnhxe72LEznJVyA-37" value="" style="endArrow=none;html=1;rounded=0;entryX=0.6;entryY=0.04;entryDx=0;entryDy=0;exitX=0.06;exitY=1.02;exitDx=0;exitDy=0;exitPerimeter=0;entryPerimeter=0;" parent="1" source="skWBgFnhxe72LEznJVyA-27" target="skWBgFnhxe72LEznJVyA-28" edge="1">
          <mxGeometry width="50" height="50" relative="1" as="geometry">
            <mxPoint x="310" y="800" as="sourcePoint" />
            <mxPoint x="360" y="750" as="targetPoint" />
          </mxGeometry>
        </mxCell>
        <mxCell id="skWBgFnhxe72LEznJVyA-38" value="" style="endArrow=none;html=1;rounded=0;" parent="1" edge="1">
          <mxGeometry width="50" height="50" relative="1" as="geometry">
            <mxPoint x="-10" y="790" as="sourcePoint" />
            <mxPoint x="-70" y="790" as="targetPoint" />
          </mxGeometry>
        </mxCell>
        <mxCell id="8QwhjRT-HZLc971NtxKG-1" value="Do" style="rhombus;whiteSpace=wrap;html=1;" parent="1" vertex="1">
          <mxGeometry x="100" y="560" width="80" height="80" as="geometry" />
        </mxCell>
        <mxCell id="8QwhjRT-HZLc971NtxKG-2" value="Has" style="rhombus;whiteSpace=wrap;html=1;" parent="1" vertex="1">
          <mxGeometry x="385" y="740" width="80" height="80" as="geometry" />
        </mxCell>
        <mxCell id="8QwhjRT-HZLc971NtxKG-3" value="Performed" style="rhombus;whiteSpace=wrap;html=1;" parent="1" vertex="1">
          <mxGeometry x="390" y="560" width="80" height="80" as="geometry" />
        </mxCell>
        <mxCell id="bg0LxutkBQc4Puj3F7RM-2" value="Title" style="ellipse;whiteSpace=wrap;html=1;align=center;fontStyle=4;" parent="1" vertex="1">
          <mxGeometry x="680" y="900" width="100" height="40" as="geometry" />
        </mxCell>
        <mxCell id="bg0LxutkBQc4Puj3F7RM-4" value="Author" style="ellipse;whiteSpace=wrap;html=1;align=center;" parent="1" vertex="1">
          <mxGeometry x="800" y="900" width="100" height="40" as="geometry" />
        </mxCell>
        <mxCell id="bg0LxutkBQc4Puj3F7RM-11" value="" style="endArrow=none;html=1;rounded=0;exitX=0.5;exitY=0;exitDx=0;exitDy=0;entryX=0.35;entryY=1.087;entryDx=0;entryDy=0;entryPerimeter=0;" parent="1" source="bg0LxutkBQc4Puj3F7RM-2" target="skWBgFnhxe72LEznJVyA-6" edge="1">
          <mxGeometry width="50" height="50" relative="1" as="geometry">
            <mxPoint x="590" y="840" as="sourcePoint" />
            <mxPoint x="640" y="790" as="targetPoint" />
          </mxGeometry>
        </mxCell>
        <mxCell id="bg0LxutkBQc4Puj3F7RM-12" value="" style="endArrow=none;html=1;rounded=0;exitX=0.392;exitY=0.015;exitDx=0;exitDy=0;exitPerimeter=0;entryX=0.81;entryY=1.033;entryDx=0;entryDy=0;entryPerimeter=0;" parent="1" source="bg0LxutkBQc4Puj3F7RM-4" target="skWBgFnhxe72LEznJVyA-6" edge="1">
          <mxGeometry width="50" height="50" relative="1" as="geometry">
            <mxPoint x="600" y="850" as="sourcePoint" />
            <mxPoint x="650" y="800" as="targetPoint" />
          </mxGeometry>
        </mxCell>
        <mxCell id="bg0LxutkBQc4Puj3F7RM-18" value="" style="endArrow=none;html=1;rounded=0;entryX=0.5;entryY=1;entryDx=0;entryDy=0;exitX=0.5;exitY=0;exitDx=0;exitDy=0;" parent="1" source="8QwhjRT-HZLc971NtxKG-1" target="skWBgFnhxe72LEznJVyA-2" edge="1">
          <mxGeometry width="50" height="50" relative="1" as="geometry">
            <mxPoint x="430" y="660" as="sourcePoint" />
            <mxPoint x="480" y="610" as="targetPoint" />
          </mxGeometry>
        </mxCell>
        <mxCell id="bg0LxutkBQc4Puj3F7RM-19" value="" style="endArrow=none;html=1;rounded=0;exitX=0.5;exitY=0;exitDx=0;exitDy=0;" parent="1" source="skWBgFnhxe72LEznJVyA-27" edge="1">
          <mxGeometry width="50" height="50" relative="1" as="geometry">
            <mxPoint x="140" y="730" as="sourcePoint" />
            <mxPoint x="140" y="640" as="targetPoint" />
          </mxGeometry>
        </mxCell>
        <mxCell id="bg0LxutkBQc4Puj3F7RM-30" value="M" style="text;html=1;align=center;verticalAlign=middle;whiteSpace=wrap;rounded=0;" parent="1" vertex="1">
          <mxGeometry x="90" y="460" width="60" height="30" as="geometry" />
        </mxCell>
        <mxCell id="bg0LxutkBQc4Puj3F7RM-32" value="M" style="text;html=1;align=center;verticalAlign=middle;whiteSpace=wrap;rounded=0;" parent="1" vertex="1">
          <mxGeometry x="100" y="720" width="60" height="30" as="geometry" />
        </mxCell>
        <mxCell id="bg0LxutkBQc4Puj3F7RM-37" value="M" style="text;html=1;align=center;verticalAlign=middle;whiteSpace=wrap;rounded=0;" parent="1" vertex="1">
          <mxGeometry x="680" y="710" width="60" height="30" as="geometry" />
        </mxCell>
        <mxCell id="bg0LxutkBQc4Puj3F7RM-38" value="" style="endArrow=none;html=1;rounded=0;exitX=0.5;exitY=1;exitDx=0;exitDy=0;entryX=0.397;entryY=0.033;entryDx=0;entryDy=0;entryPerimeter=0;" parent="1" source="8QwhjRT-HZLc971NtxKG-3" target="skWBgFnhxe72LEznJVyA-6" edge="1">
          <mxGeometry width="50" height="50" relative="1" as="geometry">
            <mxPoint x="430" y="540" as="sourcePoint" />
            <mxPoint x="700" y="740" as="targetPoint" />
          </mxGeometry>
        </mxCell>
        <mxCell id="bg0LxutkBQc4Puj3F7RM-47" value="" style="endArrow=none;html=1;rounded=0;exitX=1;exitY=0.5;exitDx=0;exitDy=0;entryX=0;entryY=0.5;entryDx=0;entryDy=0;" parent="1" source="skWBgFnhxe72LEznJVyA-27" target="8QwhjRT-HZLc971NtxKG-2" edge="1">
          <mxGeometry width="50" height="50" relative="1" as="geometry">
            <mxPoint x="430" y="540" as="sourcePoint" />
            <mxPoint x="480" y="490" as="targetPoint" />
          </mxGeometry>
        </mxCell>
        <mxCell id="bg0LxutkBQc4Puj3F7RM-48" value="" style="endArrow=none;html=1;rounded=0;exitX=1;exitY=0.5;exitDx=0;exitDy=0;entryX=0;entryY=0.5;entryDx=0;entryDy=0;" parent="1" target="skWBgFnhxe72LEznJVyA-6" edge="1">
          <mxGeometry width="50" height="50" relative="1" as="geometry">
            <mxPoint x="465" y="779.29" as="sourcePoint" />
            <mxPoint x="650" y="779.29" as="targetPoint" />
          </mxGeometry>
        </mxCell>
        <mxCell id="bg0LxutkBQc4Puj3F7RM-49" value="1" style="text;html=1;align=center;verticalAlign=middle;whiteSpace=wrap;rounded=0;" parent="1" vertex="1">
          <mxGeometry x="190" y="750" width="60" height="30" as="geometry" />
        </mxCell>
        <mxCell id="bg0LxutkBQc4Puj3F7RM-50" value="M" style="text;html=1;align=center;verticalAlign=middle;whiteSpace=wrap;rounded=0;" parent="1" vertex="1">
          <mxGeometry x="630" y="750" width="60" height="30" as="geometry" />
        </mxCell>
        <mxCell id="pCRfseB5D4A76fUa0ZeT-1" value="" style="endArrow=none;html=1;rounded=0;entryX=1;entryY=1;entryDx=0;entryDy=0;exitX=0;exitY=1;exitDx=0;exitDy=0;" parent="1" source="skWBgFnhxe72LEznJVyA-21" target="skWBgFnhxe72LEznJVyA-21" edge="1">
          <mxGeometry width="50" height="50" relative="1" as="geometry">
            <mxPoint x="460" y="580" as="sourcePoint" />
            <mxPoint x="510" y="530" as="targetPoint" />
          </mxGeometry>
        </mxCell>
        <mxCell id="pCRfseB5D4A76fUa0ZeT-7" value="Play" style="rhombus;whiteSpace=wrap;html=1;" parent="1" vertex="1">
          <mxGeometry x="400" y="390" width="80" height="80" as="geometry" />
        </mxCell>
        <mxCell id="pCRfseB5D4A76fUa0ZeT-8" value="" style="endArrow=none;html=1;rounded=0;entryX=1;entryY=0.5;entryDx=0;entryDy=0;exitX=0;exitY=0.5;exitDx=0;exitDy=0;" parent="1" source="pCRfseB5D4A76fUa0ZeT-7" target="skWBgFnhxe72LEznJVyA-2" edge="1">
          <mxGeometry width="50" height="50" relative="1" as="geometry">
            <mxPoint x="470" y="580" as="sourcePoint" />
            <mxPoint x="520" y="530" as="targetPoint" />
          </mxGeometry>
        </mxCell>
        <mxCell id="pCRfseB5D4A76fUa0ZeT-9" value="" style="endArrow=none;html=1;rounded=0;entryX=1;entryY=0.5;entryDx=0;entryDy=0;exitX=0;exitY=0.5;exitDx=0;exitDy=0;" parent="1" source="skWBgFnhxe72LEznJVyA-4" target="pCRfseB5D4A76fUa0ZeT-7" edge="1">
          <mxGeometry width="50" height="50" relative="1" as="geometry">
            <mxPoint x="470" y="580" as="sourcePoint" />
            <mxPoint x="520" y="530" as="targetPoint" />
          </mxGeometry>
        </mxCell>
        <mxCell id="pCRfseB5D4A76fUa0ZeT-12" value="M" style="text;html=1;align=center;verticalAlign=middle;resizable=0;points=[];autosize=1;strokeColor=none;fillColor=none;" parent="1" vertex="1">
          <mxGeometry x="205" y="408" width="30" height="30" as="geometry" />
        </mxCell>
        <mxCell id="pCRfseB5D4A76fUa0ZeT-13" value="M" style="text;html=1;align=center;verticalAlign=middle;resizable=0;points=[];autosize=1;strokeColor=none;fillColor=none;" parent="1" vertex="1">
          <mxGeometry x="645" y="398" width="30" height="30" as="geometry" />
        </mxCell>
        <mxCell id="pCRfseB5D4A76fUa0ZeT-15" value="" style="endArrow=none;html=1;rounded=0;entryX=0.5;entryY=0;entryDx=0;entryDy=0;exitX=1;exitY=1;exitDx=0;exitDy=0;" parent="1" source="skWBgFnhxe72LEznJVyA-2" target="8QwhjRT-HZLc971NtxKG-3" edge="1">
          <mxGeometry width="50" height="50" relative="1" as="geometry">
            <mxPoint x="230" y="470" as="sourcePoint" />
            <mxPoint x="500" y="565" as="targetPoint" />
          </mxGeometry>
        </mxCell>
        <mxCell id="pCRfseB5D4A76fUa0ZeT-16" value="M" style="text;html=1;align=center;verticalAlign=middle;resizable=0;points=[];autosize=1;strokeColor=none;fillColor=none;" parent="1" vertex="1">
          <mxGeometry x="185" y="458" width="30" height="30" as="geometry" />
        </mxCell>
        <mxCell id="pCRfseB5D4A76fUa0ZeT-18" value="Produce" style="rhombus;whiteSpace=wrap;html=1;" parent="1" vertex="1">
          <mxGeometry x="10" y="560" width="80" height="80" as="geometry" />
        </mxCell>
        <mxCell id="pCRfseB5D4A76fUa0ZeT-19" value="" style="endArrow=none;html=1;rounded=0;entryX=0;entryY=1;entryDx=0;entryDy=0;exitX=0.5;exitY=0;exitDx=0;exitDy=0;" parent="1" source="pCRfseB5D4A76fUa0ZeT-18" target="skWBgFnhxe72LEznJVyA-2" edge="1">
          <mxGeometry width="50" height="50" relative="1" as="geometry">
            <mxPoint x="340" y="650" as="sourcePoint" />
            <mxPoint x="390" y="600" as="targetPoint" />
          </mxGeometry>
        </mxCell>
        <mxCell id="pCRfseB5D4A76fUa0ZeT-21" value="" style="endArrow=none;html=1;rounded=0;entryX=0.5;entryY=1;entryDx=0;entryDy=0;exitX=0;exitY=0;exitDx=0;exitDy=0;" parent="1" source="skWBgFnhxe72LEznJVyA-27" target="pCRfseB5D4A76fUa0ZeT-18" edge="1">
          <mxGeometry width="50" height="50" relative="1" as="geometry">
            <mxPoint x="60" y="570" as="sourcePoint" />
            <mxPoint x="90" y="470" as="targetPoint" />
          </mxGeometry>
        </mxCell>
        <mxCell id="pCRfseB5D4A76fUa0ZeT-23" value="1" style="text;html=1;align=center;verticalAlign=middle;whiteSpace=wrap;rounded=0;" parent="1" vertex="1">
          <mxGeometry x="30" y="730" width="60" height="30" as="geometry" />
        </mxCell>
        <mxCell id="pCRfseB5D4A76fUa0ZeT-24" value="M" style="text;html=1;align=center;verticalAlign=middle;resizable=0;points=[];autosize=1;strokeColor=none;fillColor=none;" parent="1" vertex="1">
          <mxGeometry x="55" y="448" width="30" height="30" as="geometry" />
        </mxCell>
        <mxCell id="9uMOTXki_Up4aSgGHMWp-1" value="" style="endArrow=none;html=1;rounded=0;entryX=0.67;entryY=0.011;entryDx=0;entryDy=0;entryPerimeter=0;exitX=0.5;exitY=1;exitDx=0;exitDy=0;" edge="1" parent="1" source="9uMOTXki_Up4aSgGHMWp-2" target="skWBgFnhxe72LEznJVyA-11">
          <mxGeometry width="50" height="50" relative="1" as="geometry">
            <mxPoint x="220" y="290" as="sourcePoint" />
            <mxPoint x="430" y="560" as="targetPoint" />
          </mxGeometry>
        </mxCell>
        <mxCell id="9uMOTXki_Up4aSgGHMWp-2" value="Street" style="ellipse;whiteSpace=wrap;html=1;align=center;" vertex="1" parent="1">
          <mxGeometry x="160" y="250" width="100" height="40" as="geometry" />
        </mxCell>
        <mxCell id="9uMOTXki_Up4aSgGHMWp-3" value="City" style="ellipse;whiteSpace=wrap;html=1;align=center;" vertex="1" parent="1">
          <mxGeometry x="55" y="250" width="100" height="40" as="geometry" />
        </mxCell>
        <mxCell id="9uMOTXki_Up4aSgGHMWp-4" value="" style="endArrow=none;html=1;rounded=0;entryX=0.5;entryY=1;entryDx=0;entryDy=0;exitX=0.258;exitY=0.086;exitDx=0;exitDy=0;exitPerimeter=0;" edge="1" parent="1" source="skWBgFnhxe72LEznJVyA-11" target="9uMOTXki_Up4aSgGHMWp-3">
          <mxGeometry width="50" height="50" relative="1" as="geometry">
            <mxPoint x="380" y="610" as="sourcePoint" />
            <mxPoint x="430" y="560" as="targetPoint" />
          </mxGeometry>
        </mxCell>
      </root>
    </mxGraphModel>
  </diagram>
</mxfile>
